<?xml version="1.0" encoding="UTF-8" standalone="no"?>
<svg
   version="1.1"
   id="Layer_1"
   x="0px"
   y="0px"
   width="100%"
   viewBox="0 0 1024 1024"
   enable-background="new 0 0 1024 1024"
   xml:space="preserve"
   sodipodi:docname="muela.svg"
   inkscape:version="1.4.2 (f4327f4, 2025-05-13)"
   xmlns:inkscape="http://www.inkscape.org/namespaces/inkscape"
   xmlns:sodipodi="http://sodipodi.sourceforge.net/DTD/sodipodi-0.dtd"
   xmlns="http://www.w3.org/2000/svg"
   xmlns:svg="http://www.w3.org/2000/svg"><defs
   id="defs11" /><sodipodi:namedview
   id="namedview11"
   pagecolor="#ffffff"
   bordercolor="#000000"
   borderopacity="0.25"
   inkscape:showpageshadow="2"
   inkscape:pageopacity="0.0"
   inkscape:pagecheckerboard="0"
   inkscape:deskcolor="#d1d1d1"
   inkscape:zoom="0.55726091"
   inkscape:cx="477.33475"
   inkscape:cy="510.53285"
   inkscape:window-width="1920"
   inkscape:window-height="1009"
   inkscape:window-x="-8"
   inkscape:window-y="-8"
   inkscape:window-maximized="1"
   inkscape:current-layer="Layer_1" />

<path
   fill="#f2f2f2"
   opacity="1"
   stroke="none"
   d="m 562.47242,85.531029 c 43.78923,-12.193591 85.17774,-32.740849 130.81481,-38.40185 43.38719,-5.381918 85.95588,-3.10728 126.00702,16.968438 30.22236,15.148921 52.98178,38.012833 70.26715,66.903053 19.06881,31.87063 28.40091,66.58026 30.88421,103.23117 1.36579,20.15553 3.69965,40.70276 1.30195,60.55461 -4.15284,34.38161 -8.8057,69.18221 -18.40331,102.31393 -14.22441,49.10442 -32.7342,96.98141 -49.84374,145.2305 -8.72903,24.61619 -15.26289,49.59803 -17.67362,75.67682 -3.86622,41.82587 -7.84797,83.64452 -12.26783,125.41472 -5.69144,53.78705 -18.03227,106.00374 -39.25718,155.87386 -12.53248,29.4466 -28.64392,56.61436 -55.49362,75.49302 -13.2107,9.28892 -27.8856,15.31232 -44.58578,11.28524 -23.18558,-5.59088 -36.59977,-22.42468 -43.52059,-43.37815 -6.73068,-20.37776 -10.91474,-41.74942 -14.53612,-62.97142 -8.95256,-52.46336 -17.95367,-104.86782 -37.32666,-154.76841 -9.08822,-23.4091 -20.3896,-45.32321 -41.3505,-60.93979 -23.58278,-17.57005 -52.88644,-15.92119 -74.60782,4.02363 -21.13662,19.40787 -31.94465,44.61571 -41.18701,70.6791 -13.4235,37.8537 -20.77759,77.21855 -28.09114,116.60138 -5.21656,28.09114 -10.7865,56.15816 -17.57828,83.89819 -3.51462,14.35523 -12.28075,26.59421 -23.50767,36.48974 -19.41514,17.11245 -43.59548,13.69036 -63.45395,1.03535 -22.24514,-14.17563 -36.83859,-34.81944 -49.13893,-57.43933 -20.97452,-38.57164 -31.33621,-80.69382 -40.10315,-123.1797 -4.70561,-22.80411 -8.19429,-45.95987 -10.52901,-69.12854 -3.2785,-32.53447 -4.60451,-65.26049 -7.44065,-97.84589 -3.27452,-37.62178 -15.09126,-73.04224 -28.01276,-108.32769 -15.39441,-42.0383 -30.43991,-84.30141 -43.12657,-127.20921 -15.04131,-50.87112 -20.08824,-103.45222 -16.64624,-156.37651 3.01482,-46.357 15.67123,-90.19544 45.30706,-127.04985 28.64677,-35.624446 66.25057,-56.937186 111.76673,-63.378095 41.64627,-5.893298 82.30251,0.289579 122.17002,11.956609 27.24012,7.971735 54.02124,17.511903 81.52461,27.233655 -0.68844,2.487935 -1.61559,4.448716 -3.1423,5.643316 -16.05314,12.560855 -34.5836,19.219875 -54.5352,22.106025 -9.0199,1.30475 -18.14506,1.88165 -28.98367,2.9647 2.90171,1.94135 4.13809,3.15823 5.62129,3.70277 23.81578,8.74384 48.56177,9.50324 73.29909,6.85084 24.20242,-2.59501 47.348,-9.87658 69.02195,-21.08397 12.37098,-6.396949 24.25442,-13.736931 36.35741,-20.652261 m -90.9676,514.489731 c 15.07721,-18.56869 30.15437,-37.13738 46.26155,-56.2667 5.9828,-7.20722 12.02633,-14.36492 17.93785,-21.63007 24.15041,-29.67927 48.26056,-59.39144 73.3954,-89.70183 8.05093,-9.66587 16.19908,-19.25276 24.1319,-29.01452 15.29798,-18.82488 30.47431,-37.74856 46.57961,-57.12622 -0.30934,-0.88069 -0.61868,-1.76138 -2.56029,-2.89585 -38.25747,0.12512 -76.51482,0.25023 -116.25662,0.044 -3.90778,0 -7.81546,0 -13.09797,0 11.44351,-22.30764 22.04449,-42.97304 33.55981,-64.38013 26.35346,-49.21532 52.70702,-98.43064 79.06047,-147.64597 -0.71859,-0.83078 -1.43718,-1.66151 -2.15577,-2.49229 -58.55393,28.27999 -119.08092,45.60024 -184.71201,34.2847 -1.44278,4.28635 -2.74333,8.12824 -4.02961,11.97492 -9.85505,29.47281 -19.70724,58.9466 -30.31582,89.3449 -12.41405,36.20521 -24.82809,72.41038 -37.9197,109.69622 -5.99061,17.31799 -11.98116,34.63598 -18.30527,52.91832 39.53599,0 77.2123,0 115.2414,0 -0.54078,2.81288 -0.97178,5.05452 -2.36971,8.1229 -6.11621,13.72552 -12.40501,27.37734 -18.30479,41.1953 -7.28189,17.05484 -14.2404,34.24788 -22.26215,52.2275 -8.54492,20.2056 -17.08978,40.41119 -26.61051,61.38652 -18.16525,40.84758 -36.33044,81.69516 -54.49563,122.54262 0.54912,0.47171 1.09823,0.9433 1.64735,1.4149 1.9245,-1.73565 4.08845,-3.2707 5.73645,-5.23794 16.97097,-20.25782 33.95706,-40.50454 50.73708,-60.9202 12.84419,-15.62714 25.39847,-31.49255 39.10698,-47.84107 M 174.77688,293.24612 c 1.6016,-11.529 3.12788,-23.06903 4.81814,-34.58505 6.4784,-44.13857 29.15799,-78.03049 64.76676,-104.28624 8.95961,-6.60621 17.38862,-14.89616 23.51543,-24.10605 6.00498,-9.02669 -1.65726,-22.26338 -12.1075,-23.29562 -5.44219,-0.5376 -11.29385,-0.41609 -16.52845,1.00241 -31.41922,8.51412 -52.66319,30.15539 -68.15741,57.13349 -23.39241,40.7299 -26.53003,85.42781 -21.07966,131.05696 0.74282,6.21828 1.88294,13.98119 10.75668,15.171 9.41721,1.2627 12.8282,-2.92378 14.01601,-18.0909 z"
   id="path2"
   style="stroke:#000000;stroke-width:1.76407;stroke-opacity:1" />
<path
   fill="#e0e0e0"
   opacity="1"
   stroke="none"
   d="m 561.7253,85.552455 c -11.35587,6.893904 -23.23931,14.233886 -35.61029,20.630835 -21.67395,11.20739 -44.81953,18.48896 -69.02195,21.08397 -24.73732,2.6524 -49.48331,1.893 -73.29909,-6.85084 -1.4832,-0.54454 -2.71958,-1.76142 -5.62129,-3.70277 10.83861,-1.08305 19.96377,-1.65995 28.98367,-2.9647 19.9516,-2.88615 38.48206,-9.54517 54.5352,-22.106025 1.52671,-1.1946 2.45386,-3.155381 3.74681,-5.363697 15.41885,1.030349 30.7401,3.830851 46.08433,3.962639 14.74414,0.126674 29.51282,-2.502792 44.26858,-3.943365 1.73597,-0.169527 3.45826,-0.479671 5.93403,-0.746047 z"
   id="path3"
   style="stroke-width:1.76407" />
<path
   id="path14"
   style="opacity:1;fill:#0000ff;stroke:none;stroke-width:1.76407"
   d="m 658.3613,128.91209 c -58.55394,28.27998 -119.08265,45.59771 -184.71374,34.28217 -1.44278,4.28635 -2.74143,8.12968 -4.02772,11.97636 -9.85505,29.47282 -19.7088,58.94699 -29.56191,88.42045 17.77951,1.69737 35.53636,3.76221 53.34927,4.96488 -17.81291,-1.20267 -35.56761,-3.26827 -53.72482,-4.50319 -12.79181,36.66761 -25.20763,72.87471 -36.94207,109.06555 3.81826,-0.46702 6.96029,-1.31631 10.09516,-1.29204 -3.13487,-0.0244 -6.27576,0.82216 -10.43282,1.82953 -7.00899,17.87265 -13.00137,35.19096 -19.32548,53.4733 h 115.24322 c -0.54078,2.81288 -0.97135,5.05587 -1.40229,7.29746 2.97452,0.6019 5.99275,1.79569 8.93749,2.00869 -2.95621,-0.20365 -6.04298,-1.33988 -9.4233,-1.59525 -6.59964,14.13893 -12.88822,27.78923 -18.78801,41.60719 -7.28189,17.05485 -14.23932,34.24869 -21.33763,51.38191 0.51509,0.51157 1.09603,1.44827 1.56767,1.68139 -0.48155,-0.2234 -1.12378,-1.10291 -2.02936,-1.25759 -9.00661,20.62883 -17.55089,40.8339 -26.0958,61.0395 2.22742,12.69818 14.46914,13.31308 22.94665,17.20999 -8.47751,-3.89691 -20.72052,-4.51084 -23.43592,-16.8241 -18.65309,41.23238 -36.8172,82.0791 -54.98239,122.92656 0.54912,0.47171 1.0978,0.94448 1.64692,1.41609 1.92449,-1.73565 4.08867,-3.27328 5.73666,-5.24053 16.97096,-20.25781 33.95761,-40.50324 50.73762,-60.9189 12.84419,-15.62714 25.39892,-31.49244 37.42443,-47.21293 -3.89194,1.36885 -8.10587,3.97635 -11.64906,5.3301 3.59329,-1.37656 7.93714,-4.0668 12.15898,-5.62297 16.24758,-18.90225 31.32571,-37.47211 45.76584,-56.31923 -5.9686,-0.52668 -11.44567,-0.25417 -16.70007,-1.09221 5.25531,0.83772 10.75365,0.55577 17.21689,0.81313 7.13497,-7.20906 13.17623,-14.36879 19.08776,-21.63394 24.1504,-29.67928 48.26152,-59.39156 71.6928,-89.06474 -9.20667,0.62633 -17.88764,1.70047 -26.49202,1.88465 8.61186,-0.18792 17.34973,-1.29447 26.99851,-2.18786 9.24951,-9.99787 17.39465,-19.58655 25.32746,-29.3483 15.29799,-18.82488 30.47712,-37.74662 45.70383,-56.62933 -0.0141,-0.69802 -0.0272,-1.3962 -0.86136,-2.74257 -39.07845,-0.52317 -77.33722,-0.40075 -115.59468,-0.27564 -1.49958,4.82898 -5.11997,8.72697 -9.51975,10.99097 4.29473,-2.28724 7.6911,-6.25605 8.77899,-11.15635 -4.64995,-0.16565 -8.55785,-0.16538 -13.84035,-0.16538 11.44351,-22.30764 22.04363,-42.97153 31.83246,-63.6856 -5.00637,-0.89191 -9.35473,-1.68179 -13.6164,-2.58753 4.26532,0.90276 8.65265,1.66059 14.07465,2.21542 27.62278,-49.53752 53.97708,-98.75274 80.33053,-147.96805 -0.71858,-0.83079 -1.43825,-1.66029 -2.15684,-2.49106 z M 552.94792,354.75408 c -0.75814,0.38961 -1.53377,0.7302 -2.33257,1.01642 0.79684,-0.29241 1.58277,-0.61765 2.33257,-1.01642 z m -14.06775,1.37474 c -0.0106,0.004 -0.0226,0.006 -0.031,0.0103 0.008,-0.005 0.0204,-0.007 0.031,-0.0103 z m 10.29843,0.11715 c -0.15571,0.0421 -0.30853,0.0895 -0.46513,0.12747 0.15621,-0.0386 0.30996,-0.0847 0.46513,-0.12747 z m -2.72878,0.5237 c -0.0742,0.008 -0.1463,0.0307 -0.22051,0.0379 -0.0434,0.004 -0.0875,0.003 -0.13093,0.007 0.11772,-0.0108 0.23395,-0.0316 0.35144,-0.0448 z m -22.66414,4.2758 c -0.92716,-0.0214 -1.84391,0.004 -2.73568,0.12059 0.89175,-0.11685 1.80854,-0.14202 2.73568,-0.12059 z m -91.54203,11.4492 c -1.57093,0.24073 -3.16434,0.32371 -4.77194,0.31011 1.6076,0.0136 3.20101,-0.0694 4.77194,-0.31011 z m 25.69614,157.04337 c 0.0216,0.008 0.0444,0.0126 0.0655,0.0172 -0.0212,-0.004 -0.0436,-0.01 -0.0655,-0.0172 z m 0.22395,76.44409 c -0.63659,0.2429 -1.24154,0.42716 -1.82954,0.57539 0.58573,-0.14728 1.19137,-0.33129 1.82954,-0.57539 z" />



<path
   fill="#fefefd"
   opacity="1"
   stroke="none"
   d="m 181.79139,307.82143 c -1.18219,16.29985 -13.15467,21.87463 -23.80659,20.44637 -10.03719,-1.3458 -11.3268,-10.12652 -12.16701,-17.16009 -6.16497,-51.61166 -2.61597,-102.17 23.84346,-148.24007 17.52569,-30.51525 41.555,-54.99394 77.09366,-64.624361 5.92091,-1.60449 12.53978,-1.741928 18.69551,-1.133837 11.8204,1.167566 20.48725,16.139758 13.69495,26.349948 -6.93012,10.41742 -16.46427,19.79429 -26.59859,27.26665 -40.27751,29.69817 -58.65578,57.40122 -65.98357,107.32688 -1.91188,13.02591 -2.79887,35.87207 -4.77182,49.76851 z"
   id="path8"
   style="stroke-width:1.99535"
   sodipodi:nodetypes="cscsssscsc" />


<path
   fill="#49bee6"
   opacity="1"
   stroke="none"
   d="m 679.37183,346.52895 c -0.45253,-0.4506 -0.46578,-1.14873 -0.48387,-2.3682 0.30449,0.35929 0.61383,1.23998 0.48387,2.3682 z"
   id="path11"
   style="stroke-width:1.76407" />
</svg>
